<svg xmlns="http://www.w3.org/2000/svg" width="64" height="64" viewBox="0 0 24 24" fill="#333">
  <path d="M12 .5A12 12 0 0 0 0 12.5c0 5.3 3.4 9.8 8.2 11.4.6.1.8-.2.8-.6v-2.1c-3.3.7-4-1.6-4-1.6-.5-1.3-1.2-1.6-1.2-1.6-1-.7.1-.7.1-.7 1.1.1 1.7 1.1 1.7 1.1 1 .1.8 1.7.8 1.7.9 1.6 2.4 1.1 3 .9.1-.7.4-1.1.7-1.4-2.6-.3-5.3-1.3-5.3-5.8 0-1.3.5-2.4 1.3-3.2-.1-.3-.6-1.5.1-3.2 0 0 1-.3 3.2 1.3.9-.3 1.9-.4 2.9-.4 1 0 2 .1 2.9.4 2.2-1.6 3.2-1.3 3.2-1.3.7 1.7.2 2.9.1 3.2.8.8 1.3 1.9 1.3 3.2 0 4.5-2.7 5.5-5.3 5.8.4.4.8 1 .8 2v2.9c0 .4.2.7.8.6A12 12 0 0 0 12 .5z"/>
</svg>
